<svg xmlns="http://www.w3.org/2000/svg" width="25" height="25" viewBox="0 0 25 25">
  <metadata><?xpacket begin="﻿" id="W5M0MpCehiHzreSzNTczkc9d"?>
<x:xmpmeta xmlns:x="adobe:ns:meta/" x:xmptk="Adobe XMP Core 5.6-c138 79.159824, 2016/09/14-01:09:01        ">
   <rdf:RDF xmlns:rdf="http://www.w3.org/1999/02/22-rdf-syntax-ns#">
      <rdf:Description rdf:about=""/>
   </rdf:RDF>
</x:xmpmeta>
                                                                                                    
                                                                                                    
                                                                                                    
                                                                                                    
                                                                                                    
                                                                                                    
                                                                                                    
                                                                                                    
                                                                                                    
                                                                                                    
                                                                                                    
                                                                                                    
                                                                                                    
                                                                                                    
                                                                                                    
                                                                                                    
                                                                                                    
                                                                                                    
                                                                                                    
                                                                                                    
                           
<?xpacket end="w"?></metadata>
<defs>
    <style>
      .cls-1 {
        fill: #1c1f22;
        fill-rule: evenodd;
      }
    </style>
  </defs>
  <path id="シェイプ_1" data-name="シェイプ 1" class="cls-1" d="M1268.73,6593h-10.46a7.274,7.274,0,0,1-7.27-7.26v-10.48a7.274,7.274,0,0,1,7.27-7.26h10.46a7.274,7.274,0,0,1,7.27,7.26v10.48A7.274,7.274,0,0,1,1268.73,6593Zm-10.46-22.71a4.978,4.978,0,0,0-4.98,4.97v10.48a4.978,4.978,0,0,0,4.98,4.97h10.46a4.978,4.978,0,0,0,4.98-4.97v-10.48a4.978,4.978,0,0,0-4.98-4.97h-10.46Zm5.23,16.6a6.39,6.39,0,1,1,6.4-6.39A6.4,6.4,0,0,1,1263.5,6586.89Zm0-10.54a4.15,4.15,0,1,0,4.16,4.15A4.161,4.161,0,0,0,1263.5,6576.35Zm8.24-2.49a1.525,1.525,0,1,1-1.52-1.53A1.519,1.519,0,0,1,1271.74,6573.86Z" transform="translate(-1251 -6568)"/>
</svg>
